<svg width="13.970703" height="14.000000" viewBox="0 0 13.9707 14" fill="none" xmlns="http://www.w3.org/2000/svg" xmlns:xlink="http://www.w3.org/1999/xlink">
	<desc>
			Created with Pixso.
	</desc>
	<defs/>
	<path id="Vector" d="M13.6 10.27L11.65 8.32C10.95 7.62 9.76 7.9 9.48 8.8C9.27 9.43 8.58 9.78 7.95 9.64C6.55 9.29 4.67 7.48 4.32 6.01C4.11 5.39 4.53 4.69 5.16 4.48C6.06 4.2 6.34 3.01 5.64 2.32L3.69 0.36C3.13 -0.13 2.3 -0.13 1.81 0.36L0.48 1.69C-0.84 3.08 0.62 6.78 3.9 10.06C7.18 13.34 10.88 14.87 12.27 13.48L13.6 12.15C14.09 11.59 14.09 10.76 13.6 10.27Z" fill="#5D71DD" fill-opacity="1.000000" fill-rule="nonzero"/>
</svg>
