<svg width="20.000000" height="20.000000" viewBox="0 0 20 20" fill="none" xmlns="http://www.w3.org/2000/svg" xmlns:xlink="http://www.w3.org/1999/xlink">
	<desc>
			Created with Pixso.
	</desc>
	<defs>
		<clipPath id="clip2_1087">
			<rect id="refresh-arrows-circle-with-clockwise-rotation 1" rx="0.000000" width="19.000000" height="19.000000" transform="translate(0.500000 0.500000)" fill="white" fill-opacity="0"/>
		</clipPath>
	</defs>
	<rect id="refresh-arrows-circle-with-clockwise-rotation 1" rx="0.000000" width="19.000000" height="19.000000" transform="translate(0.500000 0.500000)" fill="#FFFFFF" fill-opacity="0"/>
	<g clip-path="url(#clip2_1087)">
		<path id="Vector" d="M17.69 3.72L17.69 5.57C17.56 5.33 17.42 5.11 17.26 4.89C16.73 4.13 16.08 3.46 15.34 2.9C14.58 2.33 13.75 1.89 12.86 1.59C11.94 1.27 10.98 1.12 10 1.12C8.97 1.12 7.97 1.29 7.01 1.63C6.09 1.96 5.23 2.44 4.46 3.05C3.7 3.66 3.05 4.38 2.52 5.2C1.99 6.04 1.6 6.95 1.37 7.91C1.22 8.53 1.6 9.15 2.21 9.3C2.31 9.32 2.4 9.33 2.49 9.33C3 9.33 3.48 8.98 3.6 8.45C3.94 7.04 4.76 5.76 5.9 4.85C6.47 4.4 7.1 4.04 7.79 3.8C8.5 3.55 9.24 3.42 10 3.42C11.44 3.42 12.8 3.87 13.95 4.74C14.73 5.32 15.37 6.08 15.82 6.93L14.54 6.93C13.91 6.93 13.39 7.45 13.39 8.08C13.39 8.72 13.91 9.24 14.54 9.24L18.84 9.24C19.48 9.24 20 8.72 20 8.08L20 3.72C20 3.09 19.48 2.57 18.84 2.57C18.21 2.57 17.69 3.09 17.69 3.72Z" fill="#FFFFFF" fill-opacity="1.000000" fill-rule="nonzero"/>
		<path id="Vector" d="M1.15 17.42C1.78 17.42 2.3 16.9 2.3 16.27L2.3 14.42C2.98 15.61 3.94 16.63 5.1 17.4C6.55 18.36 8.24 18.87 9.99 18.87C9.99 18.87 9.99 18.87 9.99 18.87C9.99 18.87 9.99 18.87 10 18.87C10 18.87 10 18.87 10 18.87C10 18.87 10 18.87 10 18.87C11.02 18.87 12.02 18.7 12.97 18.36C13.9 18.03 14.76 17.55 15.53 16.94C16.29 16.33 16.94 15.61 17.47 14.79C18 13.95 18.39 13.04 18.62 12.08C18.77 11.46 18.39 10.84 17.77 10.69C17.16 10.54 16.54 10.92 16.39 11.54C16.05 12.95 15.23 14.23 14.09 15.14C13.52 15.59 12.89 15.95 12.2 16.19C11.5 16.44 10.75 16.57 10 16.57C8.7 16.57 7.44 16.19 6.37 15.48C5.44 14.87 4.69 14.03 4.18 13.06L5.45 13.06C6.08 13.06 6.6 12.54 6.6 11.91C6.6 11.27 6.08 10.75 5.45 10.75L1.15 10.75C0.51 10.75 0 11.27 0 11.91L0 16.27C0 16.9 0.51 17.42 1.15 17.42Z" fill="#FFFFFF" fill-opacity="1.000000" fill-rule="nonzero"/>
	</g>
</svg>
